<svg width="15" height="18" viewBox="0 0 15 18" fill="none" xmlns="http://www.w3.org/2000/svg">
<path d="M12.6229 2.18292C11.1993 0.759274 9.39603 0 7.40293 0C5.40983 0 3.60656 0.759274 2.18292 2.18292C0.759275 3.60656 0 5.40983 0 7.40293C0 9.39603 0.759275 11.1993 2.18292 12.6229L6.0742 16.5142C6.45384 16.8939 6.83347 17.0837 7.40293 17.0837C7.87748 17.0837 8.35202 16.8939 8.73166 16.5142L12.6229 12.6229C14.0466 11.1993 14.8059 9.39603 14.8059 7.40293C14.711 5.40983 13.9517 3.60656 12.6229 2.18292ZM11.8637 11.8637L7.97239 15.755C7.78257 15.9448 7.59275 16.0397 7.40293 16.0397C7.21311 16.0397 6.92838 15.9448 6.83347 15.755L2.84728 11.8637C1.61346 10.6298 0.949094 9.01639 0.949094 7.40293C0.949094 5.69456 1.61346 4.0811 2.84728 2.94219C4.0811 1.70837 5.69456 1.044 7.30802 1.044C9.01639 1.044 10.6298 1.70837 11.7688 2.94219C14.3313 5.40984 14.3313 9.39603 11.8637 11.8637Z" fill="white"/>
<path d="M7.40301 4.74541C5.97937 4.74541 4.74554 5.88432 4.74554 7.40287C4.74554 8.82651 5.88446 10.0603 7.40301 10.0603C8.82665 10.0603 10.0605 8.92142 10.0605 7.40287C9.96556 5.97923 8.82665 4.74541 7.40301 4.74541ZM7.40301 9.01633C6.45391 9.01633 5.78955 8.25706 5.78955 7.40287C5.78955 6.45378 6.54882 5.78941 7.40301 5.78941C8.3521 5.78941 9.01647 6.54869 9.01647 7.40287C9.01647 8.25706 8.25719 9.01633 7.40301 9.01633Z" fill="white"/>
</svg>
