<svg width="19" height="14" viewBox="0 0 19 14" fill="none" xmlns="http://www.w3.org/2000/svg">
<path d="M16.5142 0H1.61346C0.759272 0 0 0.664366 0 1.61346V12.1484C0 13.0026 0.664363 13.7619 1.61346 13.7619H16.4193C17.2735 13.7619 18.0328 13.0975 18.0328 12.1484V1.51855C18.0328 0.664366 17.3684 0 16.5142 0ZM16.2295 1.044L9.01639 8.25712L1.80327 1.044H16.2295V1.044ZM1.13891 11.8637V1.80328L6.26401 6.83347L1.13891 11.8637ZM1.89819 12.6229L7.02329 7.49784L8.82657 9.30112C9.01639 9.49094 9.39602 9.49094 9.58584 9.30112L11.2942 7.59275L16.3244 12.6229H1.89819V12.6229ZM16.9888 11.8637L11.9586 6.83347L16.9888 1.80328V11.8637V11.8637Z" fill="white"/>
</svg>
