<svg width="10" height="16" viewBox="0 0 10 16" fill="none" xmlns="http://www.w3.org/2000/svg">
<path d="M8.36364 0H1.63636C0.727273 0 0 0.761905 0 1.71429V14.2857C0 15.2381 0.727273 16 1.63636 16H8.36364C9.27273 16 10 15.2381 10 14.2857V1.71429C10 0.761905 9.27273 0 8.36364 0ZM1.63636 0.952381H8.36364C8.81818 0.952381 9.09091 1.33333 9.09091 1.71429V11.0476H0.909091V1.71429C0.909091 1.33333 1.27273 0.952381 1.63636 0.952381ZM8.36364 15.0476H1.63636C1.18182 15.0476 0.909091 14.6667 0.909091 14.2857V12H9.09091V14.2857C9.09091 14.7619 8.81818 15.0476 8.36364 15.0476ZM5 12.2857C4.36364 12.2857 3.81818 12.8571 3.81818 13.5238C3.81818 14.1905 4.36364 14.7619 5 14.7619C5.63636 14.7619 6.18182 14.1905 6.18182 13.5238C6.18182 12.8571 5.63636 12.2857 5 12.2857ZM5 13.8095C4.81818 13.8095 4.72727 13.7143 4.72727 13.5238C4.72727 13.3333 4.81818 13.2381 5 13.2381C5.18182 13.2381 5.27273 13.3333 5.27273 13.5238C5.27273 13.7143 5.18182 13.8095 5 13.8095Z" fill="white"/>
</svg>
